<svg xmlns="http://www.w3.org/2000/svg" width="1640" height="980" viewBox="0 0 1640 980" role="img" aria-labelledby="title desc">
<title id="title">Main-app details v2</title>
<desc id="desc">Four-lane lifecycle from setup through extraction, explicit review, and accepted-only export.</desc>
<defs>
<filter id="shadow" x="-15%" y="-20%" width="140%" height="155%"><feDropShadow dx="0" dy="5" stdDeviation="6" flood-color="#102033" flood-opacity="0.08"/></filter>
</defs>
<rect width="1640" height="980" fill="#F7F8FA"/>
<text x="48" y="52" font-family="Inter, Segoe UI, Arial, sans-serif" font-size="32" font-weight="700" fill="#102033" text-anchor="start">
<tspan x="48" dy="0">Main-app details</tspan>
</text>
<rect x="42" y="128" width="270" height="788" rx="18" fill="#EAF1FF" stroke="#D9E0E8" stroke-width="1.3" />
<text x="64" y="162" font-family="Inter, Segoe UI, Arial, sans-serif" font-size="17" font-weight="700" fill="#2563EB" text-anchor="start">
<tspan x="64" dy="0">1  Setup</tspan>
</text>
<line x1="62" y1="176" x2="292" y2="176" stroke="#2563EB" stroke-width="2" stroke-linecap="round" />
<rect x="330" y="128" width="270" height="788" rx="18" fill="#E5F6F3" stroke="#D9E0E8" stroke-width="1.3" />
<text x="352" y="162" font-family="Inter, Segoe UI, Arial, sans-serif" font-size="17" font-weight="700" fill="#078B83" text-anchor="start">
<tspan x="352" dy="0">2  Prepare documents</tspan>
</text>
<line x1="350" y1="176" x2="580" y2="176" stroke="#078B83" stroke-width="2" stroke-linecap="round" />
<rect x="618" y="128" width="626" height="788" rx="18" fill="#EAF1FF" stroke="#D9E0E8" stroke-width="1.3" />
<text x="640" y="162" font-family="Inter, Segoe UI, Arial, sans-serif" font-size="17" font-weight="700" fill="#2563EB" text-anchor="start">
<tspan x="640" dy="0">3  Extract proposals</tspan>
</text>
<line x1="638" y1="176" x2="1224" y2="176" stroke="#2563EB" stroke-width="2" stroke-linecap="round" />
<rect x="1262" y="128" width="336" height="788" rx="18" fill="#FFF3DE" stroke="#D9E0E8" stroke-width="1.3" />
<text x="1284" y="162" font-family="Inter, Segoe UI, Arial, sans-serif" font-size="17" font-weight="700" fill="#D97706" text-anchor="start">
<tspan x="1284" dy="0">4  Review &amp; export</tspan>
</text>
<line x1="1282" y1="176" x2="1578" y2="176" stroke="#D97706" stroke-width="2" stroke-linecap="round" />
<rect x="68" y="222" width="218" height="104" rx="14" fill="#FFFFFF" stroke="#D9E0E8" stroke-width="1.5" filter="url(#shadow)"/>
<rect x="68" y="222" width="6" height="104" rx="3" fill="#2563EB" stroke="#2563EB" stroke-width="0" />
<circle cx="107" cy="274.0" r="23.0" fill="#EAF1FF" stroke="none" stroke-width="1.5"/>
<line x1="98.15384615384616" y1="267.8076923076923" x2="115.84615384615384" y2="267.8076923076923" stroke="#2563EB" stroke-width="1.9461538461538463" stroke-linecap="round" />
<circle cx="104.34615384615384" cy="267.8076923076923" r="1.9461538461538463" fill="#FFFFFF" stroke="#2563EB" stroke-width="1.9461538461538463"/>
<line x1="98.15384615384616" y1="274.0" x2="115.84615384615384" y2="274.0" stroke="#2563EB" stroke-width="1.9461538461538463" stroke-linecap="round" />
<circle cx="110.53846153846153" cy="274.0" r="1.9461538461538463" fill="#FFFFFF" stroke="#2563EB" stroke-width="1.9461538461538463"/>
<line x1="98.15384615384616" y1="280.1923076923077" x2="115.84615384615384" y2="280.1923076923077" stroke="#2563EB" stroke-width="1.9461538461538463" stroke-linecap="round" />
<circle cx="102.57692307692308" cy="280.1923076923077" r="1.9461538461538463" fill="#FFFFFF" stroke="#2563EB" stroke-width="1.9461538461538463"/>
<text x="144" y="259" font-family="Inter, Segoe UI, Arial, sans-serif" font-size="18" font-weight="700" fill="#102033" text-anchor="start">
<tspan x="144" dy="0">Config</tspan>
</text>
<text x="144" y="287.0" font-family="Inter, Segoe UI, Arial, sans-serif" font-size="14" font-weight="400" fill="#5F6F82" text-anchor="start">
<tspan x="144" dy="0">paths and</tspan>
<tspan x="144" dy="16.8">overrides</tspan>
</text>
<line x1="177" y1="326" x2="177.0" y2="386.0" stroke="#AAB6C4" stroke-width="2.5" stroke-linecap="round" />
<path d="M 177 398 L 171.0 385.0 L 183.0 385.0 Z" fill="#AAB6C4"/>
<rect x="68" y="410" width="218" height="104" rx="14" fill="#FFFFFF" stroke="#D9E0E8" stroke-width="1.5" filter="url(#shadow)"/>
<rect x="68" y="410" width="6" height="104" rx="3" fill="#2563EB" stroke="#2563EB" stroke-width="0" />
<circle cx="107" cy="462.0" r="23.0" fill="#EAF1FF" stroke="none" stroke-width="1.5"/>
<circle cx="107" cy="462.0" r="8.846153846153847" fill="none" stroke="#2563EB" stroke-width="1.9461538461538463"/>
<path d="M 102.57692307692308 462.0 L 106.11538461538461 465.53846153846155 L 112.3076923076923 457.5769230769231" fill="none" stroke="#2563EB" stroke-width="1.9461538461538463" stroke-linecap="round" stroke-linejoin="round"/>
<text x="144" y="447" font-family="Inter, Segoe UI, Arial, sans-serif" font-size="18" font-weight="700" fill="#102033" text-anchor="start">
<tspan x="144" dy="0">Preflight</tspan>
</text>
<text x="144" y="475.0" font-family="Inter, Segoe UI, Arial, sans-serif" font-size="14" font-weight="400" fill="#5F6F82" text-anchor="start">
<tspan x="144" dy="0">inputs, parser,</tspan>
<tspan x="144" dy="16.8">provider</tspan>
</text>
<line x1="177" y1="514" x2="177.0" y2="574.0" stroke="#AAB6C4" stroke-width="2.5" stroke-linecap="round" />
<path d="M 177 586 L 171.0 573.0 L 183.0 573.0 Z" fill="#AAB6C4"/>
<rect x="68" y="598" width="218" height="104" rx="14" fill="#FFFFFF" stroke="#D9E0E8" stroke-width="1.5" filter="url(#shadow)"/>
<rect x="68" y="598" width="6" height="104" rx="3" fill="#2563EB" stroke="#2563EB" stroke-width="0" />
<circle cx="107" cy="650.0" r="23.0" fill="#EAF1FF" stroke="none" stroke-width="1.5"/>
<path d="M 99.92307692307692 640.2692307692307 H 109.65384615384616 L 114.96153846153847 645.5769230769231 V 659.7307692307693 H 99.92307692307692 Z" fill="none" stroke="#2563EB" stroke-width="1.9461538461538463" stroke-linecap="round" stroke-linejoin="round"/>
<line x1="103.46153846153847" y1="652.6538461538462" x2="111.42307692307692" y2="652.6538461538462" stroke="#2563EB" stroke-width="1.9461538461538463" stroke-linecap="round" />
<line x1="103.46153846153847" y1="656.1923076923077" x2="109.65384615384616" y2="656.1923076923077" stroke="#2563EB" stroke-width="1.9461538461538463" stroke-linecap="round" />
<text x="144" y="635" font-family="Inter, Segoe UI, Arial, sans-serif" font-size="18" font-weight="700" fill="#102033" text-anchor="start">
<tspan x="144" dy="0">Ready</tspan>
</text>
<text x="144" y="663.0" font-family="Inter, Segoe UI, Arial, sans-serif" font-size="14" font-weight="400" fill="#5F6F82" text-anchor="start">
<tspan x="144" dy="0">run bundle</tspan>
<tspan x="144" dy="16.8">starts</tspan>
</text>
<rect x="356" y="222" width="218" height="104" rx="14" fill="#FFFFFF" stroke="#D9E0E8" stroke-width="1.5" filter="url(#shadow)"/>
<rect x="356" y="222" width="6" height="104" rx="3" fill="#078B83" stroke="#078B83" stroke-width="0" />
<circle cx="395" cy="274.0" r="23.0" fill="#E5F6F3" stroke="none" stroke-width="1.5"/>
<path d="M 387.9230769230769 264.2692307692308 H 397.65384615384613 L 402.96153846153845 269.5769230769231 V 283.7307692307692 H 387.9230769230769 Z" fill="none" stroke="#078B83" stroke-width="1.9461538461538463" stroke-linecap="round" stroke-linejoin="round"/>
<line x1="391.46153846153845" y1="276.65384615384613" x2="399.4230769230769" y2="276.65384615384613" stroke="#078B83" stroke-width="1.9461538461538463" stroke-linecap="round" />
<line x1="391.46153846153845" y1="280.1923076923077" x2="397.65384615384613" y2="280.1923076923077" stroke="#078B83" stroke-width="1.9461538461538463" stroke-linecap="round" />
<text x="432" y="259" font-family="Inter, Segoe UI, Arial, sans-serif" font-size="18" font-weight="700" fill="#102033" text-anchor="start">
<tspan x="432" dy="0">Parse PDFs</tspan>
</text>
<text x="432" y="287.0" font-family="Inter, Segoe UI, Arial, sans-serif" font-size="14" font-weight="400" fill="#5F6F82" text-anchor="start">
<tspan x="432" dy="0">configured</tspan>
<tspan x="432" dy="16.8">parser</tspan>
</text>
<line x1="465" y1="326" x2="465.0" y2="386.0" stroke="#AAB6C4" stroke-width="2.5" stroke-linecap="round" />
<path d="M 465 398 L 459.0 385.0 L 471.0 385.0 Z" fill="#AAB6C4"/>
<rect x="356" y="410" width="218" height="104" rx="14" fill="#FFFFFF" stroke="#D9E0E8" stroke-width="1.5" filter="url(#shadow)"/>
<rect x="356" y="410" width="6" height="104" rx="3" fill="#078B83" stroke="#078B83" stroke-width="0" />
<circle cx="395" cy="462.0" r="23.0" fill="#E5F6F3" stroke="none" stroke-width="1.5"/>
<rect x="386.15384615384613" y="454.03846153846155" width="17.692307692307693" height="15.923076923076923" rx="1.7692307692307692" fill="none" stroke="#078B83" stroke-width="1.9461538461538463" />
<line x1="386.15384615384613" y1="459.34615384615387" x2="403.84615384615387" y2="459.34615384615387" stroke="#078B83" stroke-width="1.9461538461538463" stroke-linecap="round" />
<line x1="392.34615384615387" y1="454.03846153846155" x2="392.34615384615387" y2="469.96153846153845" stroke="#078B83" stroke-width="1.9461538461538463" stroke-linecap="round" />
<line x1="398.53846153846155" y1="454.03846153846155" x2="398.53846153846155" y2="469.96153846153845" stroke="#078B83" stroke-width="1.9461538461538463" stroke-linecap="round" />
<line x1="386.15384615384613" y1="464.65384615384613" x2="403.84615384615387" y2="464.65384615384613" stroke="#078B83" stroke-width="1.9461538461538463" stroke-linecap="round" />
<text x="432" y="447" font-family="Inter, Segoe UI, Arial, sans-serif" font-size="18" font-weight="700" fill="#102033" text-anchor="start">
<tspan x="432" dy="0">Metadata</tspan>
</text>
<text x="432" y="475.0" font-family="Inter, Segoe UI, Arial, sans-serif" font-size="14" font-weight="400" fill="#5F6F82" text-anchor="start">
<tspan x="432" dy="0">title, DOI,</tspan>
<tspan x="432" dy="16.8">authors, year</tspan>
</text>
<line x1="465" y1="514" x2="465.0" y2="574.0" stroke="#AAB6C4" stroke-width="2.5" stroke-linecap="round" />
<path d="M 465 586 L 459.0 573.0 L 471.0 573.0 Z" fill="#AAB6C4"/>
<rect x="356" y="598" width="218" height="104" rx="14" fill="#FFFFFF" stroke="#D9E0E8" stroke-width="1.5" filter="url(#shadow)"/>
<rect x="356" y="598" width="6" height="104" rx="3" fill="#078B83" stroke="#078B83" stroke-width="0" />
<circle cx="395" cy="650.0" r="23.0" fill="#E5F6F3" stroke="none" stroke-width="1.5"/>
<rect x="386.15384615384613" y="642.0384615384615" width="17.692307692307693" height="15.923076923076923" rx="1.7692307692307692" fill="none" stroke="#078B83" stroke-width="1.9461538461538463" />
<line x1="386.15384615384613" y1="647.3461538461538" x2="403.84615384615387" y2="647.3461538461538" stroke="#078B83" stroke-width="1.9461538461538463" stroke-linecap="round" />
<line x1="392.34615384615387" y1="642.0384615384615" x2="392.34615384615387" y2="657.9615384615385" stroke="#078B83" stroke-width="1.9461538461538463" stroke-linecap="round" />
<line x1="398.53846153846155" y1="642.0384615384615" x2="398.53846153846155" y2="657.9615384615385" stroke="#078B83" stroke-width="1.9461538461538463" stroke-linecap="round" />
<line x1="386.15384615384613" y1="652.6538461538462" x2="403.84615384615387" y2="652.6538461538462" stroke="#078B83" stroke-width="1.9461538461538463" stroke-linecap="round" />
<text x="432" y="635" font-family="Inter, Segoe UI, Arial, sans-serif" font-size="18" font-weight="700" fill="#102033" text-anchor="start">
<tspan x="432" dy="0">Match rows</tspan>
</text>
<text x="432" y="663.0" font-family="Inter, Segoe UI, Arial, sans-serif" font-size="14" font-weight="400" fill="#5F6F82" text-anchor="start">
<tspan x="432" dy="0">matched,</tspan>
<tspan x="432" dy="16.8">ambiguous,</tspan>
<tspan x="432" dy="16.8">missing</tspan>
</text>
<line x1="286" y1="650" x2="334.0" y2="650.0" stroke="#AAB6C4" stroke-width="2.5" stroke-linecap="round" />
<path d="M 346 650 L 333.0 656.0 L 333.0 644.0 Z" fill="#AAB6C4"/>
<rect x="650" y="204" width="344" height="98" rx="14" fill="#FFFFFF" stroke="#D9E0E8" stroke-width="1.5" filter="url(#shadow)"/>
<rect x="650" y="204" width="6" height="98" rx="3" fill="#2563EB" stroke="#2563EB" stroke-width="0" />
<circle cx="689" cy="253.0" r="23.0" fill="#EAF1FF" stroke="none" stroke-width="1.5"/>
<circle cx="687.2307692307693" cy="251.23076923076923" r="6.192307692307692" fill="none" stroke="#2563EB" stroke-width="1.9461538461538463"/>
<line x1="691.6538461538462" y1="255.65384615384616" x2="697.8461538461538" y2="261.84615384615387" stroke="#2563EB" stroke-width="1.9461538461538463" stroke-linecap="round" />
<line x1="683.6923076923077" y1="251.23076923076923" x2="690.7692307692307" y2="251.23076923076923" stroke="#2563EB" stroke-width="1.9461538461538463" stroke-linecap="round" />
<line x1="687.2307692307693" y1="247.69230769230768" x2="687.2307692307693" y2="254.76923076923077" stroke="#2563EB" stroke-width="1.9461538461538463" stroke-linecap="round" />
<text x="726" y="241" font-family="Inter, Segoe UI, Arial, sans-serif" font-size="18" font-weight="700" fill="#102033" text-anchor="start">
<tspan x="726" dy="0">Retrieve evidence</tspan>
</text>
<text x="726" y="269.0" font-family="Inter, Segoe UI, Arial, sans-serif" font-size="14" font-weight="400" fill="#5F6F82" text-anchor="start">
<tspan x="726" dy="0">text, tables, captions, figures</tspan>
</text>
<line x1="822" y1="302" x2="822.0" y2="338.0" stroke="#AAB6C4" stroke-width="2.5" stroke-linecap="round" />
<path d="M 822 350 L 816.0 337.0 L 828.0 337.0 Z" fill="#AAB6C4"/>
<rect x="650" y="360" width="344" height="98" rx="14" fill="#FFFFFF" stroke="#D9E0E8" stroke-width="1.5" filter="url(#shadow)"/>
<rect x="650" y="360" width="6" height="98" rx="3" fill="#2563EB" stroke="#2563EB" stroke-width="0" />
<circle cx="689" cy="409.0" r="23.0" fill="#EAF1FF" stroke="none" stroke-width="1.5"/>
<rect x="680.1538461538462" y="401.03846153846155" width="17.692307692307693" height="15.923076923076923" rx="1.7692307692307692" fill="none" stroke="#2563EB" stroke-width="1.9461538461538463" />
<line x1="680.1538461538462" y1="406.34615384615387" x2="697.8461538461538" y2="406.34615384615387" stroke="#2563EB" stroke-width="1.9461538461538463" stroke-linecap="round" />
<line x1="686.3461538461538" y1="401.03846153846155" x2="686.3461538461538" y2="416.96153846153845" stroke="#2563EB" stroke-width="1.9461538461538463" stroke-linecap="round" />
<line x1="692.5384615384615" y1="401.03846153846155" x2="692.5384615384615" y2="416.96153846153845" stroke="#2563EB" stroke-width="1.9461538461538463" stroke-linecap="round" />
<line x1="680.1538461538462" y1="411.65384615384613" x2="697.8461538461538" y2="411.65384615384613" stroke="#2563EB" stroke-width="1.9461538461538463" stroke-linecap="round" />
<text x="726" y="397" font-family="Inter, Segoe UI, Arial, sans-serif" font-size="18" font-weight="700" fill="#102033" text-anchor="start">
<tspan x="726" dy="0">Build prompt</tspan>
</text>
<text x="726" y="425.0" font-family="Inter, Segoe UI, Arial, sans-serif" font-size="14" font-weight="400" fill="#5F6F82" text-anchor="start">
<tspan x="726" dy="0">schema plus row context</tspan>
</text>
<line x1="822" y1="458" x2="822.0" y2="494.0" stroke="#AAB6C4" stroke-width="2.5" stroke-linecap="round" />
<path d="M 822 506 L 816.0 493.0 L 828.0 493.0 Z" fill="#AAB6C4"/>
<rect x="650" y="516" width="344" height="98" rx="14" fill="#FFFFFF" stroke="#D9E0E8" stroke-width="1.5" filter="url(#shadow)"/>
<rect x="650" y="516" width="6" height="98" rx="3" fill="#2563EB" stroke="#2563EB" stroke-width="0" />
<circle cx="689" cy="565.0" r="23.0" fill="#EAF1FF" stroke="none" stroke-width="1.5"/>
<rect x="679.2692307692307" y="557.9230769230769" width="19.46153846153846" height="14.153846153846153" rx="2.6538461538461537" fill="none" stroke="#2563EB" stroke-width="1.9461538461538463" />
<line x1="682.8076923076923" y1="563.2307692307693" x2="686.3461538461538" y2="565.8846153846154" stroke="#2563EB" stroke-width="1.9461538461538463" stroke-linecap="round" />
<line x1="686.3461538461538" y1="565.8846153846154" x2="682.8076923076923" y2="568.5384615384615" stroke="#2563EB" stroke-width="1.9461538461538463" stroke-linecap="round" />
<line x1="689.0" y1="568.5384615384615" x2="694.3076923076923" y2="568.5384615384615" stroke="#2563EB" stroke-width="1.9461538461538463" stroke-linecap="round" />
<text x="726" y="553" font-family="Inter, Segoe UI, Arial, sans-serif" font-size="18" font-weight="700" fill="#102033" text-anchor="start">
<tspan x="726" dy="0">Local model call</tspan>
</text>
<text x="726" y="581.0" font-family="Inter, Segoe UI, Arial, sans-serif" font-size="14" font-weight="400" fill="#5F6F82" text-anchor="start">
<tspan x="726" dy="0">validated structured output</tspan>
</text>
<line x1="822" y1="614" x2="822.0" y2="650.0" stroke="#AAB6C4" stroke-width="2.5" stroke-linecap="round" />
<path d="M 822 662 L 816.0 649.0 L 828.0 649.0 Z" fill="#AAB6C4"/>
<rect x="650" y="672" width="344" height="98" rx="14" fill="#FFFFFF" stroke="#D9E0E8" stroke-width="1.5" filter="url(#shadow)"/>
<rect x="650" y="672" width="6" height="98" rx="3" fill="#2563EB" stroke="#2563EB" stroke-width="0" />
<circle cx="689" cy="721.0" r="23.0" fill="#EAF1FF" stroke="none" stroke-width="1.5"/>
<path d="M 681.9230769230769 711.2692307692307 H 691.6538461538462 L 696.9615384615385 716.5769230769231 V 730.7307692307693 H 681.9230769230769 Z" fill="none" stroke="#2563EB" stroke-width="1.9461538461538463" stroke-linecap="round" stroke-linejoin="round"/>
<line x1="685.4615384615385" y1="723.6538461538462" x2="693.4230769230769" y2="723.6538461538462" stroke="#2563EB" stroke-width="1.9461538461538463" stroke-linecap="round" />
<line x1="685.4615384615385" y1="727.1923076923077" x2="691.6538461538462" y2="727.1923076923077" stroke="#2563EB" stroke-width="1.9461538461538463" stroke-linecap="round" />
<text x="726" y="709" font-family="Inter, Segoe UI, Arial, sans-serif" font-size="18" font-weight="700" fill="#102033" text-anchor="start">
<tspan x="726" dy="0">Normalize &amp; persist</tspan>
</text>
<text x="726" y="737.0" font-family="Inter, Segoe UI, Arial, sans-serif" font-size="14" font-weight="400" fill="#5F6F82" text-anchor="start">
<tspan x="726" dy="0">one proposal record per cell</tspan>
</text>
<path d="M 574 650 H 610 V 253 H 640" fill="none" stroke="#AAB6C4" stroke-width="2.5" stroke-linecap="round" stroke-linejoin="round" />
<path d="M 650 253 L 637.0 259.0 L 637.0 247.0 Z" fill="#AAB6C4"/>
<rect x="1038" y="201" width="158" height="104" rx="14" fill="#FFFFFF" stroke="#D9E0E8" stroke-width="1.5" />
<circle cx="1066" cy="253" r="19.0" fill="#FFF3DE" stroke="none" stroke-width="1.5"/>
<circle cx="1064.5384615384614" cy="251.53846153846155" r="5.115384615384615" fill="none" stroke="#D97706" stroke-width="1.6076923076923078"/>
<line x1="1068.1923076923076" y1="255.19230769230768" x2="1073.3076923076924" y2="260.3076923076923" stroke="#D97706" stroke-width="1.6076923076923078" stroke-linecap="round" />
<text x="1092" y="243" font-family="Inter, Segoe UI, Arial, sans-serif" font-size="14" font-weight="700" fill="#102033" text-anchor="start">
<tspan x="1092" dy="0">Recall</tspan>
<tspan x="1092" dy="16.8">rescue</tspan>
</text>
<text x="1092" y="276" font-family="Inter, Segoe UI, Arial, sans-serif" font-size="12.5" font-weight="400" fill="#5F6F82" text-anchor="start">
<tspan x="1092" dy="0">extra context</tspan>
</text>
<line x1="994" y1="253" x2="1016.0" y2="253.0" stroke="#D97706" stroke-width="2" stroke-linecap="round" stroke-dasharray="7 7"/>
<path d="M 1028 253 L 1015.0 259.0 L 1015.0 247.0 Z" fill="#D97706"/>
<rect x="1038" y="513" width="158" height="104" rx="14" fill="#FFFFFF" stroke="#D9E0E8" stroke-width="1.5" />
<circle cx="1066" cy="565" r="19.0" fill="#E5F6F3" stroke="none" stroke-width="1.5"/>
<circle cx="1064.5384615384614" cy="563.5384615384615" r="5.115384615384615" fill="none" stroke="#078B83" stroke-width="1.6076923076923078"/>
<line x1="1068.1923076923076" y1="567.1923076923077" x2="1073.3076923076924" y2="572.3076923076923" stroke="#078B83" stroke-width="1.6076923076923078" stroke-linecap="round" />
<line x1="1061.6153846153845" y1="563.5384615384615" x2="1067.4615384615386" y2="563.5384615384615" stroke="#078B83" stroke-width="1.6076923076923078" stroke-linecap="round" />
<line x1="1064.5384615384614" y1="560.6153846153846" x2="1064.5384615384614" y2="566.4615384615385" stroke="#078B83" stroke-width="1.6076923076923078" stroke-linecap="round" />
<text x="1092" y="555" font-family="Inter, Segoe UI, Arial, sans-serif" font-size="14" font-weight="700" fill="#102033" text-anchor="start">
<tspan x="1092" dy="0">Figure</tspan>
<tspan x="1092" dy="16.8">review</tspan>
</text>
<text x="1092" y="588" font-family="Inter, Segoe UI, Arial, sans-serif" font-size="12.5" font-weight="400" fill="#5F6F82" text-anchor="start">
<tspan x="1092" dy="0">targeted</tspan>
<tspan x="1092" dy="15.0">vision</tspan>
</text>
<line x1="994" y1="565" x2="1016.0" y2="565.0" stroke="#078B83" stroke-width="2" stroke-linecap="round" stroke-dasharray="7 7"/>
<path d="M 1028 565 L 1015.0 571.0 L 1015.0 559.0 Z" fill="#078B83"/>
<rect x="1038" y="669" width="158" height="104" rx="14" fill="#FFFFFF" stroke="#D9E0E8" stroke-width="1.5" />
<circle cx="1066" cy="721" r="19.0" fill="#FFF3DE" stroke="none" stroke-width="1.5"/>
<rect x="1058.6923076923076" y="714.4230769230769" width="14.615384615384615" height="13.153846153846153" rx="1.4615384615384615" fill="none" stroke="#D97706" stroke-width="1.6076923076923078" />
<line x1="1058.6923076923076" y1="718.8076923076923" x2="1073.3076923076924" y2="718.8076923076923" stroke="#D97706" stroke-width="1.6076923076923078" stroke-linecap="round" />
<line x1="1063.8076923076924" y1="714.4230769230769" x2="1063.8076923076924" y2="727.5769230769231" stroke="#D97706" stroke-width="1.6076923076923078" stroke-linecap="round" />
<line x1="1068.923076923077" y1="714.4230769230769" x2="1068.923076923077" y2="727.5769230769231" stroke="#D97706" stroke-width="1.6076923076923078" stroke-linecap="round" />
<line x1="1058.6923076923076" y1="723.1923076923077" x2="1073.3076923076924" y2="723.1923076923077" stroke="#D97706" stroke-width="1.6076923076923078" stroke-linecap="round" />
<text x="1092" y="711" font-family="Inter, Segoe UI, Arial, sans-serif" font-size="14" font-weight="700" fill="#102033" text-anchor="start">
<tspan x="1092" dy="0">Candidate</tspan>
<tspan x="1092" dy="16.8">select</tspan>
</text>
<text x="1092" y="744" font-family="Inter, Segoe UI, Arial, sans-serif" font-size="12.5" font-weight="400" fill="#5F6F82" text-anchor="start">
<tspan x="1092" dy="0">one</tspan>
<tspan x="1092" dy="15.0">arbitration</tspan>
</text>
<line x1="994" y1="721" x2="1016.0" y2="721.0" stroke="#D97706" stroke-width="2" stroke-linecap="round" stroke-dasharray="7 7"/>
<path d="M 1028 721 L 1015.0 727.0 L 1015.0 715.0 Z" fill="#D97706"/>
<rect x="668" y="822" width="528" height="64" rx="12" fill="#FFFFFF" stroke="#078B83" stroke-width="1.5" />
<text x="692" y="848" font-family="Inter, Segoe UI, Arial, sans-serif" font-size="12" font-weight="700" fill="#078B83" text-anchor="start">
<tspan x="692" dy="0">CANONICAL HANDOFF</tspan>
</text>
<text x="692" y="872" font-family="Inter, Segoe UI, Arial, sans-serif" font-size="14" font-weight="600" fill="#102033" text-anchor="start">
<tspan x="692" dy="0">value · evidence · diagnostics · review state · provenance</tspan>
</text>
<line x1="822" y1="770" x2="822.0" y2="800.0" stroke="#078B83" stroke-width="2.5" stroke-linecap="round" />
<path d="M 822 812 L 816.0 799.0 L 828.0 799.0 Z" fill="#078B83"/>
<rect x="1290" y="232" width="280" height="112" rx="14" fill="#FFFFFF" stroke="#D9E0E8" stroke-width="1.5" filter="url(#shadow)"/>
<rect x="1290" y="232" width="6" height="112" rx="3" fill="#D97706" stroke="#D97706" stroke-width="0" />
<circle cx="1329" cy="288.0" r="23.0" fill="#FFF3DE" stroke="none" stroke-width="1.5"/>
<circle cx="1329" cy="282.6923076923077" r="3.5384615384615383" fill="none" stroke="#D97706" stroke-width="1.9461538461538463"/>
<path d="M 1321.923076923077 296.84615384615387 C 1322.8076923076924 289.7692307692308, 1335.1923076923076 289.7692307692308, 1336.076923076923 296.84615384615387" fill="none" stroke="#D97706" stroke-width="1.9461538461538463" stroke-linecap="round" stroke-linejoin="round"/>
<text x="1366" y="269" font-family="Inter, Segoe UI, Arial, sans-serif" font-size="18" font-weight="700" fill="#102033" text-anchor="start">
<tspan x="1366" dy="0">Review proposals</tspan>
</text>
<text x="1366" y="297.0" font-family="Inter, Segoe UI, Arial, sans-serif" font-size="14" font-weight="400" fill="#5F6F82" text-anchor="start">
<tspan x="1366" dy="0">explicit human decisions</tspan>
</text>
<line x1="1430" y1="344" x2="1430.0" y2="416.0" stroke="#AAB6C4" stroke-width="2.5" stroke-linecap="round" />
<path d="M 1430 428 L 1424.0 415.0 L 1436.0 415.0 Z" fill="#AAB6C4"/>
<rect x="1290" y="440" width="280" height="112" rx="14" fill="#FFFFFF" stroke="#D9E0E8" stroke-width="1.5" filter="url(#shadow)"/>
<rect x="1290" y="440" width="6" height="112" rx="3" fill="#168A4B" stroke="#168A4B" stroke-width="0" />
<circle cx="1329" cy="496.0" r="23.0" fill="#E8F6ED" stroke="none" stroke-width="1.5"/>
<circle cx="1329" cy="496.0" r="8.846153846153847" fill="none" stroke="#168A4B" stroke-width="1.9461538461538463"/>
<path d="M 1324.576923076923 496.0 L 1328.1153846153845 499.53846153846155 L 1334.3076923076924 491.5769230769231" fill="none" stroke="#168A4B" stroke-width="1.9461538461538463" stroke-linecap="round" stroke-linejoin="round"/>
<text x="1366" y="477" font-family="Inter, Segoe UI, Arial, sans-serif" font-size="18" font-weight="700" fill="#102033" text-anchor="start">
<tspan x="1366" dy="0">Accepted decisions</tspan>
</text>
<text x="1366" y="505.0" font-family="Inter, Segoe UI, Arial, sans-serif" font-size="14" font-weight="400" fill="#5F6F82" text-anchor="start">
<tspan x="1366" dy="0">accepted or accepted</tspan>
<tspan x="1366" dy="16.8">with edit</tspan>
</text>
<line x1="1430" y1="552" x2="1430.0" y2="624.0" stroke="#AAB6C4" stroke-width="2.5" stroke-linecap="round" />
<path d="M 1430 636 L 1424.0 623.0 L 1436.0 623.0 Z" fill="#AAB6C4"/>
<rect x="1290" y="648" width="280" height="112" rx="14" fill="#FFFFFF" stroke="#D9E0E8" stroke-width="1.5" filter="url(#shadow)"/>
<rect x="1290" y="648" width="6" height="112" rx="3" fill="#168A4B" stroke="#168A4B" stroke-width="0" />
<circle cx="1329" cy="704.0" r="23.0" fill="#E8F6ED" stroke="none" stroke-width="1.5"/>
<path d="M 1321.923076923077 694.2692307692307 H 1331.6538461538462 L 1336.9615384615386 699.5769230769231 V 713.7307692307693 H 1321.923076923077 Z" fill="none" stroke="#168A4B" stroke-width="1.9461538461538463" stroke-linecap="round" stroke-linejoin="round"/>
<line x1="1325.4615384615386" y1="706.6538461538462" x2="1333.423076923077" y2="706.6538461538462" stroke="#168A4B" stroke-width="1.9461538461538463" stroke-linecap="round" />
<line x1="1325.4615384615386" y1="710.1923076923077" x2="1331.6538461538462" y2="710.1923076923077" stroke="#168A4B" stroke-width="1.9461538461538463" stroke-linecap="round" />
<line x1="1327.2307692307693" y1="701.3461538461538" x2="1333.423076923077" y2="701.3461538461538" stroke="#168A4B" stroke-width="1.9461538461538463" stroke-linecap="round" />
<line x1="1333.423076923077" y1="701.3461538461538" x2="1330.7692307692307" y2="698.6923076923077" stroke="#168A4B" stroke-width="1.9461538461538463" stroke-linecap="round" />
<line x1="1333.423076923077" y1="701.3461538461538" x2="1330.7692307692307" y2="704.0" stroke="#168A4B" stroke-width="1.9461538461538463" stroke-linecap="round" />
<text x="1366" y="685" font-family="Inter, Segoe UI, Arial, sans-serif" font-size="18" font-weight="700" fill="#102033" text-anchor="start">
<tspan x="1366" dy="0">Export copy</tspan>
</text>
<text x="1366" y="713.0" font-family="Inter, Segoe UI, Arial, sans-serif" font-size="14" font-weight="400" fill="#5F6F82" text-anchor="start">
<tspan x="1366" dy="0">workbook plus audit</tspan>
<tspan x="1366" dy="16.8">artifacts</tspan>
</text>
<path d="M 1196 854 H 1238 V 288 H 1280" fill="none" stroke="#AAB6C4" stroke-width="2.5" stroke-linecap="round" stroke-linejoin="round" />
<path d="M 1290 288 L 1277.0 294.0 L 1277.0 282.0 Z" fill="#AAB6C4"/>
<rect x="1322" y="814" width="214" height="30" rx="15" fill="#E8F6ED" stroke="none" stroke-width="0" />
<text x="1429.0" y="834" font-family="Inter, Segoe UI, Arial, sans-serif" font-size="13" font-weight="700" fill="#168A4B" text-anchor="middle">
<tspan x="1429.0" dy="0">ACCEPTED CHANGES ONLY</tspan>
</text>
</svg>
