<svg xmlns="http://www.w3.org/2000/svg" width="1800" height="1040" viewBox="0 0 1800 1040" role="img" aria-label="Main app lifecycle refined schematic">
<title>Main app lifecycle refined schematic</title>

<defs>

  <marker id="arrow-ink" viewBox="0 0 14 14" refX="12" refY="7" markerWidth="11" markerHeight="11" orient="auto-start-reverse">
    <path d="M 2 2 L 12 7 L 2 12 z" fill="#0f172a"/>
  </marker>

  <marker id="arrow-line" viewBox="0 0 14 14" refX="12" refY="7" markerWidth="11" markerHeight="11" orient="auto-start-reverse">
    <path d="M 2 2 L 12 7 L 2 12 z" fill="#243247"/>
  </marker>

  <marker id="arrow-blue" viewBox="0 0 14 14" refX="12" refY="7" markerWidth="11" markerHeight="11" orient="auto-start-reverse">
    <path d="M 2 2 L 12 7 L 2 12 z" fill="#2563eb"/>
  </marker>

  <marker id="arrow-teal" viewBox="0 0 14 14" refX="12" refY="7" markerWidth="11" markerHeight="11" orient="auto-start-reverse">
    <path d="M 2 2 L 12 7 L 2 12 z" fill="#0f9f8f"/>
  </marker>

  <marker id="arrow-green" viewBox="0 0 14 14" refX="12" refY="7" markerWidth="11" markerHeight="11" orient="auto-start-reverse">
    <path d="M 2 2 L 12 7 L 2 12 z" fill="#24a85b"/>
  </marker>

  <marker id="arrow-orange" viewBox="0 0 14 14" refX="12" refY="7" markerWidth="11" markerHeight="11" orient="auto-start-reverse">
    <path d="M 2 2 L 12 7 L 2 12 z" fill="#f08a24"/>
  </marker>

  <marker id="arrow-purple" viewBox="0 0 14 14" refX="12" refY="7" markerWidth="11" markerHeight="11" orient="auto-start-reverse">
    <path d="M 2 2 L 12 7 L 2 12 z" fill="#6d55e8"/>
  </marker>

  <marker id="arrow-rose" viewBox="0 0 14 14" refX="12" refY="7" markerWidth="11" markerHeight="11" orient="auto-start-reverse">
    <path d="M 2 2 L 12 7 L 2 12 z" fill="#e45670"/>
  </marker>

  <marker id="arrow-muted" viewBox="0 0 14 14" refX="12" refY="7" markerWidth="11" markerHeight="11" orient="auto-start-reverse">
    <path d="M 2 2 L 12 7 L 2 12 z" fill="#617083"/>
  </marker>
</defs>
<rect x="0.0" y="0.0" width="1800.0" height="1040.0" rx="0.0" fill="#f6f8fb" stroke="none" stroke-width="2" />
<text x="42.0" y="48.0" font-family="Segoe UI, Inter, Arial, sans-serif" font-size="34" font-weight="bold" fill="#0f172a" text-anchor="start">
<tspan x="42.0" dy="0">Main-App Run Lifecycle</tspan>
</text>
<text x="42.0" y="82.0" font-family="Segoe UI, Inter, Arial, sans-serif" font-size="17.5" font-weight="normal" fill="#617083" text-anchor="start">
<tspan x="42.0" dy="0">A configured batch becomes evidence-backed proposal records, then explicit review decisions drive export.</tspan>
</text>
<rect x="70.0" y="175.0" width="320.0" height="805.0" rx="14.0" fill="#eaf2ff" stroke="#2563eb" stroke-width="2.2" opacity="0.92"/>
<line x1="88.0" y1="227.0" x2="372.0" y2="227.0" stroke="#2563eb" stroke-width="2.4" stroke-linecap="round"  />
<text x="92.0" y="209.0" font-family="Segoe UI, Inter, Arial, sans-serif" font-size="20" font-weight="bold" fill="#0f172a" text-anchor="start">
<tspan x="92.0" dy="0">Setup</tspan>
</text>
<rect x="430.0" y="175.0" width="320.0" height="805.0" rx="14.0" fill="#e6f7f3" stroke="#0f9f8f" stroke-width="2.2" opacity="0.92"/>
<line x1="448.0" y1="227.0" x2="732.0" y2="227.0" stroke="#0f9f8f" stroke-width="2.4" stroke-linecap="round"  />
<text x="452.0" y="209.0" font-family="Segoe UI, Inter, Arial, sans-serif" font-size="20" font-weight="bold" fill="#0f172a" text-anchor="start">
<tspan x="452.0" dy="0">Document preparation</tspan>
</text>
<rect x="790.0" y="175.0" width="650.0" height="805.0" rx="14.0" fill="#efedff" stroke="#6d55e8" stroke-width="2.2" opacity="0.92"/>
<line x1="808.0" y1="227.0" x2="1422.0" y2="227.0" stroke="#6d55e8" stroke-width="2.4" stroke-linecap="round"  />
<text x="812.0" y="209.0" font-family="Segoe UI, Inter, Arial, sans-serif" font-size="20" font-weight="bold" fill="#0f172a" text-anchor="start">
<tspan x="812.0" dy="0">Extraction engine</tspan>
</text>
<rect x="1480.0" y="175.0" width="250.0" height="805.0" rx="14.0" fill="#fff0dc" stroke="#f08a24" stroke-width="2.2" opacity="0.92"/>
<line x1="1498.0" y1="227.0" x2="1712.0" y2="227.0" stroke="#f08a24" stroke-width="2.4" stroke-linecap="round"  />
<text x="1502.0" y="209.0" font-family="Segoe UI, Inter, Arial, sans-serif" font-size="20" font-weight="bold" fill="#0f172a" text-anchor="start">
<tspan x="1502.0" dy="0">Review and export</tspan>
</text>
<line x1="230.0" y1="390.0" x2="230.0" y2="440.0" stroke="#243247" stroke-width="3.2" stroke-linecap="round"  />
<path d="M 230.0 450.0 L 224.9 439.0 L 235.1 439.0 Z" fill="#243247" stroke="none"/>
<line x1="230.0" y1="565.0" x2="230.0" y2="615.0" stroke="#243247" stroke-width="3.2" stroke-linecap="round"  />
<path d="M 230.0 625.0 L 224.9 614.0 L 235.1 614.0 Z" fill="#243247" stroke="none"/>
<line x1="335.0" y1="687.0" x2="457.6" y2="687.0" stroke="#243247" stroke-width="4" stroke-linecap="round"  />
<path d="M 470.0 687.0 L 456.4 693.3 L 456.4 680.7 Z" fill="#243247" stroke="none"/>
<line x1="590.0" y1="390.0" x2="590.0" y2="440.0" stroke="#243247" stroke-width="3.2" stroke-linecap="round"  />
<path d="M 590.0 450.0 L 584.9 439.0 L 595.1 439.0 Z" fill="#243247" stroke="none"/>
<line x1="590.0" y1="565.0" x2="590.0" y2="615.0" stroke="#243247" stroke-width="3.2" stroke-linecap="round"  />
<path d="M 590.0 625.0 L 584.9 614.0 L 595.1 614.0 Z" fill="#243247" stroke="none"/>
<path d="M 705 687 L 770 687 L 770 292 L 840 292" stroke="#243247" stroke-width="4" fill="none" stroke-linecap="round" stroke-linejoin="round"  />
<path d="M 840.0 292.0 L 826.4 298.3 L 826.4 285.7 Z" fill="#243247" stroke="none"/>
<line x1="1042.0" y1="327.0" x2="1042.0" y2="362.0" stroke="#243247" stroke-width="3.2" stroke-linecap="round"  />
<path d="M 1042.0 372.0 L 1036.9 361.0 L 1047.1 361.0 Z" fill="#243247" stroke="none"/>
<line x1="1042.0" y1="454.0" x2="1042.0" y2="489.0" stroke="#243247" stroke-width="3.2" stroke-linecap="round"  />
<path d="M 1042.0 499.0 L 1036.9 488.0 L 1047.1 488.0 Z" fill="#243247" stroke="none"/>
<line x1="1042.0" y1="581.0" x2="1042.0" y2="616.0" stroke="#243247" stroke-width="3.2" stroke-linecap="round"  />
<path d="M 1042.0 626.0 L 1036.9 615.0 L 1047.1 615.0 Z" fill="#243247" stroke="none"/>
<line x1="1042.0" y1="708.0" x2="1042.0" y2="743.0" stroke="#243247" stroke-width="3.2" stroke-linecap="round"  />
<path d="M 1042.0 753.0 L 1036.9 742.0 L 1047.1 742.0 Z" fill="#243247" stroke="none"/>
<path d="M 1218 817 L 1460 817 L 1460 366 L 1498 366" stroke="#243247" stroke-width="4" fill="none" stroke-linecap="round" stroke-linejoin="round"  />
<path d="M 1498.0 366.0 L 1484.4 372.3 L 1484.4 359.7 Z" fill="#243247" stroke="none"/>
<line x1="1604.0" y1="420.0" x2="1604.0" y2="565.0" stroke="#243247" stroke-width="3.2" stroke-linecap="round"  />
<path d="M 1604.0 575.0 L 1598.9 564.0 L 1609.1 564.0 Z" fill="#243247" stroke="none"/>
<line x1="1604.0" y1="692.0" x2="1604.0" y2="825.0" stroke="#243247" stroke-width="3.2" stroke-linecap="round"  />
<path d="M 1604.0 835.0 L 1598.9 824.0 L 1609.1 824.0 Z" fill="#243247" stroke="none"/>
<line x1="1220.0" y1="288.0" x2="1254.8" y2="344.5" stroke="#f08a24" stroke-width="2.8" stroke-linecap="round" stroke-dasharray="10 9" />
<path d="M 1260.0 353.0 L 1249.9 346.3 L 1258.5 341.0 Z" fill="#f08a24" stroke="none"/>
<line x1="1220.0" y1="542.0" x2="1250.0" y2="542.0" stroke="#24a85b" stroke-width="2.8" stroke-linecap="round" stroke-dasharray="10 9" />
<path d="M 1260.0 542.0 L 1249.0 547.1 L 1249.0 536.9 Z" fill="#24a85b" stroke="none"/>
<line x1="1220.0" y1="816.0" x2="1255.4" y2="747.9" stroke="#e45670" stroke-width="2.8" stroke-linecap="round" stroke-dasharray="10 9" />
<path d="M 1260.0 739.0 L 1259.4 751.1 L 1250.4 746.4 Z" fill="#e45670" stroke="none"/>
<text x="1262.0" y="248.0" font-family="Segoe UI, Inter, Arial, sans-serif" font-size="15" font-weight="bold" fill="#617083" text-anchor="start">
<tspan x="1262.0" dy="0">optional side rail</tspan>
</text>
<rect x="120.0" y="292.0" width="235.0" height="105.0" rx="13.0" fill="#0f172a" opacity="0.055" stroke="none"/>
<rect x="115.0" y="285.0" width="235.0" height="105.0" rx="13.0" fill="#ffffff" stroke="#d9e2ec" stroke-width="1.8" />
<rect x="115.0" y="285.0" width="6.0" height="105.0" rx="3.0" fill="#2563eb" stroke="#2563eb" stroke-width="0" />
<circle cx="165.0" cy="337.5" r="34.0" fill="#eaf2ff" stroke="#dce6f0" stroke-width="1.2"/>
<rect x="147.1" y="320.7" width="35.8" height="31.4" rx="7.0" fill="#ffffff" stroke="#0f172a" stroke-width="2.2" />
<line x1="153.2" y1="328.5" x2="176.8" y2="328.5" stroke="#2563eb" stroke-width="3.0" stroke-linecap="round"  />
<circle cx="171.7" cy="328.5" r="3.1" fill="#ffffff" stroke="#0f172a" stroke-width="2.0"/>
<line x1="153.2" y1="336.9" x2="176.8" y2="336.9" stroke="#2563eb" stroke-width="3.0" stroke-linecap="round"  />
<circle cx="158.3" cy="336.9" r="3.1" fill="#ffffff" stroke="#0f172a" stroke-width="2.0"/>
<line x1="153.2" y1="345.3" x2="176.8" y2="345.3" stroke="#2563eb" stroke-width="3.0" stroke-linecap="round"  />
<circle cx="167.2" cy="345.3" r="3.1" fill="#ffffff" stroke="#0f172a" stroke-width="2.0"/>
<text x="203.0" y="317.0" font-family="Segoe UI, Inter, Arial, sans-serif" font-size="18" font-weight="bold" fill="#0f172a" text-anchor="start">
<tspan x="203.0" dy="0">Config</tspan>
</text>
<text x="203.0" y="342.0" font-family="Segoe UI, Inter, Arial, sans-serif" font-size="13.2" font-weight="normal" fill="#617083" text-anchor="start">
<tspan x="203.0" dy="0">paths and overrides</tspan>
</text>
<rect x="120.0" y="467.0" width="235.0" height="105.0" rx="13.0" fill="#0f172a" opacity="0.055" stroke="none"/>
<rect x="115.0" y="460.0" width="235.0" height="105.0" rx="13.0" fill="#ffffff" stroke="#d9e2ec" stroke-width="1.8" />
<rect x="115.0" y="460.0" width="6.0" height="105.0" rx="3.0" fill="#2563eb" stroke="#2563eb" stroke-width="0" />
<circle cx="165.0" cy="512.5" r="34.0" fill="#eaf2ff" stroke="#dce6f0" stroke-width="1.2"/>
<rect x="144.3" y="496.8" width="38.1" height="26.9" rx="8.0" fill="#ffffff" stroke="#0f172a" stroke-width="2.3" />
<line x1="153.2" y1="505.8" x2="172.3" y2="505.8" stroke="#2563eb" stroke-width="3.5" stroke-linecap="round"  />
<line x1="153.2" y1="514.2" x2="169.5" y2="514.2" stroke="#2563eb" stroke-width="3.5" stroke-linecap="round"  />
<circle cx="180.1" cy="521.5" r="4.5" fill="#2563eb" stroke="#2563eb" stroke-width="2"/>
<text x="203.0" y="492.0" font-family="Segoe UI, Inter, Arial, sans-serif" font-size="18" font-weight="bold" fill="#0f172a" text-anchor="start">
<tspan x="203.0" dy="0">Preflight</tspan>
</text>
<text x="203.0" y="517.0" font-family="Segoe UI, Inter, Arial, sans-serif" font-size="13.2" font-weight="normal" fill="#617083" text-anchor="start">
<tspan x="203.0" dy="0">inputs, parser,</tspan>
<tspan x="203.0" dy="14.3">provider</tspan>
</text>
<rect x="120.0" y="642.0" width="235.0" height="105.0" rx="11.0" fill="#0f172a" opacity="0.055" stroke="none"/>
<rect x="115.0" y="635.0" width="235.0" height="105.0" rx="11.0" fill="#fbfdff" stroke="#2563eb" stroke-width="2.3" />
<circle cx="163.0" cy="687.5" r="36.0" fill="#eaf2ff" stroke="#dce6f0" stroke-width="1.2"/>
<path d="M 145.6 665.3 H 170.2 L 180.4 675.5 V 706.1 H 145.6 Z" stroke="#0f172a" stroke-width="2.2" fill="#ffffff" stroke-linecap="round" stroke-linejoin="round"  />
<path d="M 170.2 665.3 L 180.4 675.5 L 170.2 675.5 Z" stroke="none" stroke-width="0" fill="#eef3f8" stroke-linecap="round" stroke-linejoin="round"  />
<path d="M 170.2 665.3 L 180.4 675.5 M 170.2 665.3 V 675.5 H 180.4" stroke="#0f172a" stroke-width="1.6" fill="none" stroke-linecap="round" stroke-linejoin="round"  />
<line x1="152.8" y1="685.7" x2="169.6" y2="685.7" stroke="#2563eb" stroke-width="3.2" stroke-linecap="round"  />
<line x1="152.8" y1="694.7" x2="165.4" y2="694.7" stroke="#2563eb" stroke-width="3.2" stroke-linecap="round"  />
<circle cx="176.2" cy="700.7" r="8.4" fill="#ffffff" stroke="#24a85b" stroke-width="2.4"/>
<path d="M 172.0 700.7 L 175.6 704.3 L 182.2 695.3" stroke="#24a85b" stroke-width="3.0" fill="none" stroke-linecap="round" stroke-linejoin="round"  />
<text x="205.0" y="673.0" font-family="Segoe UI, Inter, Arial, sans-serif" font-size="20" font-weight="bold" fill="#0f172a" text-anchor="start">
<tspan x="205.0" dy="0">Ready</tspan>
</text>
<text x="205.0" y="701.0" font-family="Segoe UI, Inter, Arial, sans-serif" font-size="13.8" font-weight="normal" fill="#617083" text-anchor="start">
<tspan x="205.0" dy="0">run bundle</tspan>
<tspan x="205.0" dy="14.9">starts</tspan>
</text>
<rect x="480.0" y="292.0" width="230.0" height="105.0" rx="13.0" fill="#0f172a" opacity="0.055" stroke="none"/>
<rect x="475.0" y="285.0" width="230.0" height="105.0" rx="13.0" fill="#ffffff" stroke="#d9e2ec" stroke-width="1.8" />
<rect x="475.0" y="285.0" width="6.0" height="105.0" rx="3.0" fill="#0f9f8f" stroke="#0f9f8f" stroke-width="0" />
<circle cx="525.0" cy="337.5" r="34.0" fill="#e6f7f3" stroke="#dce6f0" stroke-width="1.2"/>
<path d="M 504.3 314.0 H 527.2 L 536.8 323.5 V 352.1 H 504.3 Z" stroke="#9badbf" stroke-width="1.7" fill="#ffffff" stroke-linecap="round" stroke-linejoin="round"  />
<path d="M 527.2 314.0 L 536.8 323.5 L 527.2 323.5 Z" stroke="none" stroke-width="0" fill="#eef3f8" stroke-linecap="round" stroke-linejoin="round"  />
<path d="M 527.2 314.0 L 536.8 323.5 M 527.2 314.0 V 323.5 H 536.8" stroke="#9badbf" stroke-width="1.6" fill="none" stroke-linecap="round" stroke-linejoin="round"  />
<rect x="509.9" y="342.0" width="16.8" height="3.1" rx="2.0" fill="#9badbf" stroke="#9badbf" stroke-width="0" opacity="0.55"/>
<path d="M 507.6 317.3 H 530.6 L 540.1 326.9 V 355.4 H 507.6 Z" stroke="#9badbf" stroke-width="1.7" fill="#ffffff" stroke-linecap="round" stroke-linejoin="round"  />
<path d="M 530.6 317.3 L 540.1 326.9 L 530.6 326.9 Z" stroke="none" stroke-width="0" fill="#eef3f8" stroke-linecap="round" stroke-linejoin="round"  />
<path d="M 530.6 317.3 L 540.1 326.9 M 530.6 317.3 V 326.9 H 540.1" stroke="#9badbf" stroke-width="1.6" fill="none" stroke-linecap="round" stroke-linejoin="round"  />
<rect x="513.2" y="345.3" width="16.8" height="3.1" rx="2.0" fill="#9badbf" stroke="#9badbf" stroke-width="0" opacity="0.72"/>
<path d="M 511.6 320.7 H 534.5 L 544.0 330.2 V 358.8 H 511.6 Z" stroke="#9badbf" stroke-width="2.0" fill="#ffffff" stroke-linecap="round" stroke-linejoin="round"  />
<path d="M 534.5 320.7 L 544.0 330.2 L 534.5 330.2 Z" stroke="none" stroke-width="0" fill="#eef3f8" stroke-linecap="round" stroke-linejoin="round"  />
<path d="M 534.5 320.7 L 544.0 330.2 M 534.5 320.7 V 330.2 H 544.0" stroke="#9badbf" stroke-width="1.6" fill="none" stroke-linecap="round" stroke-linejoin="round"  />
<rect x="517.7" y="348.1" width="20.2" height="5.0" rx="3.0" fill="#0f9f8f" stroke="#0f9f8f" stroke-width="0" />
<text x="563.0" y="317.0" font-family="Segoe UI, Inter, Arial, sans-serif" font-size="18" font-weight="bold" fill="#0f172a" text-anchor="start">
<tspan x="563.0" dy="0">Parse PDFs</tspan>
</text>
<text x="563.0" y="342.0" font-family="Segoe UI, Inter, Arial, sans-serif" font-size="13.2" font-weight="normal" fill="#617083" text-anchor="start">
<tspan x="563.0" dy="0">Docling or</tspan>
<tspan x="563.0" dy="14.3">configured parser</tspan>
</text>
<rect x="480.0" y="467.0" width="230.0" height="105.0" rx="13.0" fill="#0f172a" opacity="0.055" stroke="none"/>
<rect x="475.0" y="460.0" width="230.0" height="105.0" rx="13.0" fill="#ffffff" stroke="#d9e2ec" stroke-width="1.8" />
<rect x="475.0" y="460.0" width="6.0" height="105.0" rx="3.0" fill="#0f9f8f" stroke="#0f9f8f" stroke-width="0" />
<circle cx="525.0" cy="512.5" r="34.0" fill="#e6f7f3" stroke="#dce6f0" stroke-width="1.2"/>
<rect x="505.4" y="495.1" width="39.2" height="33.6" rx="6.0" fill="#ffffff" stroke="#0f172a" stroke-width="2.2" />
<line x1="513.8" y1="505.2" x2="535.6" y2="505.2" stroke="#0f9f8f" stroke-width="3.2" stroke-linecap="round"  />
<line x1="513.8" y1="513.6" x2="535.6" y2="513.6" stroke="#0f9f8f" stroke-width="3.2" stroke-linecap="round"  />
<line x1="513.8" y1="522.0" x2="535.6" y2="522.0" stroke="#0f9f8f" stroke-width="3.2" stroke-linecap="round"  />
<text x="563.0" y="492.0" font-family="Segoe UI, Inter, Arial, sans-serif" font-size="18" font-weight="bold" fill="#0f172a" text-anchor="start">
<tspan x="563.0" dy="0">Metadata</tspan>
</text>
<text x="563.0" y="517.0" font-family="Segoe UI, Inter, Arial, sans-serif" font-size="13.2" font-weight="normal" fill="#617083" text-anchor="start">
<tspan x="563.0" dy="0">title, DOI,</tspan>
<tspan x="563.0" dy="14.3">authors, year</tspan>
</text>
<rect x="480.0" y="642.0" width="230.0" height="105.0" rx="11.0" fill="#0f172a" opacity="0.055" stroke="none"/>
<rect x="475.0" y="635.0" width="230.0" height="105.0" rx="11.0" fill="#fbfdff" stroke="#0f9f8f" stroke-width="2.3" />
<circle cx="523.0" cy="687.5" r="36.0" fill="#e6f7f3" stroke="#dce6f0" stroke-width="1.2"/>
<rect x="499.6" y="667.7" width="46.8" height="39.6" rx="5.0" fill="#ffffff" stroke="#0f172a" stroke-width="2.2" />
<rect x="499.6" y="667.7" width="46.8" height="9.0" rx="5.0" fill="#0f9f8f" stroke="#0f9f8f" stroke-width="0" />
<line x1="511.3" y1="667.7" x2="511.3" y2="707.3" stroke="#b9c6d3" stroke-width="1.4" stroke-linecap="round"  />
<line x1="499.6" y1="677.6" x2="546.4" y2="677.6" stroke="#b9c6d3" stroke-width="1.4" stroke-linecap="round"  />
<line x1="523.0" y1="667.7" x2="523.0" y2="707.3" stroke="#b9c6d3" stroke-width="1.4" stroke-linecap="round"  />
<line x1="499.6" y1="687.5" x2="546.4" y2="687.5" stroke="#b9c6d3" stroke-width="1.4" stroke-linecap="round"  />
<line x1="534.7" y1="667.7" x2="534.7" y2="707.3" stroke="#b9c6d3" stroke-width="1.4" stroke-linecap="round"  />
<line x1="499.6" y1="697.4" x2="546.4" y2="697.4" stroke="#b9c6d3" stroke-width="1.4" stroke-linecap="round"  />
<text x="565.0" y="673.0" font-family="Segoe UI, Inter, Arial, sans-serif" font-size="20" font-weight="bold" fill="#0f172a" text-anchor="start">
<tspan x="565.0" dy="0">Match rows</tspan>
</text>
<text x="565.0" y="701.0" font-family="Segoe UI, Inter, Arial, sans-serif" font-size="13.8" font-weight="normal" fill="#617083" text-anchor="start">
<tspan x="565.0" dy="0">matched,</tspan>
<tspan x="565.0" dy="14.9">ambiguous,</tspan>
<tspan x="565.0" dy="14.9">missing</tspan>
</text>
<rect x="845.0" y="257.0" width="380.0" height="77.0" rx="13.0" fill="#0f172a" opacity="0.055" stroke="none"/>
<rect x="840.0" y="250.0" width="380.0" height="77.0" rx="13.0" fill="#ffffff" stroke="#d9e2ec" stroke-width="1.8" />
<rect x="840.0" y="250.0" width="6.0" height="77.0" rx="3.0" fill="#6d55e8" stroke="#6d55e8" stroke-width="0" />
<circle cx="890.0" cy="288.5" r="34.0" fill="#efedff" stroke="#dce6f0" stroke-width="1.2"/>
<circle cx="884.4" cy="282.3" r="10.6" fill="#ffffff" stroke="#0f172a" stroke-width="2.3"/>
<line x1="892.8" y1="290.7" x2="907.9" y2="305.9" stroke="#0f172a" stroke-width="4.2" stroke-linecap="round"  />
<line x1="877.1" y1="282.3" x2="891.7" y2="282.3" stroke="#6d55e8" stroke-width="3.5" stroke-linecap="round"  />
<line x1="884.4" y1="275.1" x2="884.4" y2="289.6" stroke="#6d55e8" stroke-width="3.5" stroke-linecap="round"  />
<text x="928.0" y="282.0" font-family="Segoe UI, Inter, Arial, sans-serif" font-size="18" font-weight="bold" fill="#0f172a" text-anchor="start">
<tspan x="928.0" dy="0">Retrieve evidence</tspan>
</text>
<text x="928.0" y="307.0" font-family="Segoe UI, Inter, Arial, sans-serif" font-size="13.2" font-weight="normal" fill="#617083" text-anchor="start">
<tspan x="928.0" dy="0">text, tables, captions, figures</tspan>
</text>
<rect x="845.0" y="384.0" width="380.0" height="77.0" rx="13.0" fill="#0f172a" opacity="0.055" stroke="none"/>
<rect x="840.0" y="377.0" width="380.0" height="77.0" rx="13.0" fill="#ffffff" stroke="#d9e2ec" stroke-width="1.8" />
<rect x="840.0" y="377.0" width="6.0" height="77.0" rx="3.0" fill="#6d55e8" stroke="#6d55e8" stroke-width="0" />
<circle cx="890.0" cy="415.5" r="34.0" fill="#efedff" stroke="#dce6f0" stroke-width="1.2"/>
<rect x="870.4" y="398.1" width="39.2" height="33.6" rx="6.0" fill="#ffffff" stroke="#0f172a" stroke-width="2.2" />
<line x1="878.8" y1="408.2" x2="900.6" y2="408.2" stroke="#6d55e8" stroke-width="3.2" stroke-linecap="round"  />
<line x1="878.8" y1="416.6" x2="900.6" y2="416.6" stroke="#6d55e8" stroke-width="3.2" stroke-linecap="round"  />
<line x1="878.8" y1="425.0" x2="900.6" y2="425.0" stroke="#6d55e8" stroke-width="3.2" stroke-linecap="round"  />
<text x="928.0" y="409.0" font-family="Segoe UI, Inter, Arial, sans-serif" font-size="18" font-weight="bold" fill="#0f172a" text-anchor="start">
<tspan x="928.0" dy="0">Build prompt</tspan>
</text>
<text x="928.0" y="434.0" font-family="Segoe UI, Inter, Arial, sans-serif" font-size="13.2" font-weight="normal" fill="#617083" text-anchor="start">
<tspan x="928.0" dy="0">schema plus row context</tspan>
</text>
<rect x="845.0" y="511.0" width="380.0" height="77.0" rx="13.0" fill="#0f172a" opacity="0.055" stroke="none"/>
<rect x="840.0" y="504.0" width="380.0" height="77.0" rx="13.0" fill="#ffffff" stroke="#d9e2ec" stroke-width="1.8" />
<rect x="840.0" y="504.0" width="6.0" height="77.0" rx="3.0" fill="#6d55e8" stroke="#6d55e8" stroke-width="0" />
<circle cx="890.0" cy="542.5" r="34.0" fill="#efedff" stroke="#dce6f0" stroke-width="1.2"/>
<rect x="871.5" y="524.6" width="34.7" height="29.1" rx="7.0" fill="#0f172a" stroke="#0f172a" stroke-width="2" />
<line x1="879.4" y1="533.5" x2="897.8" y2="533.5" stroke="#6d55e8" stroke-width="3.2" stroke-linecap="round"  />
<line x1="879.4" y1="541.4" x2="897.8" y2="541.4" stroke="#6d55e8" stroke-width="3.2" stroke-linecap="round"  />
<line x1="879.4" y1="549.2" x2="897.8" y2="549.2" stroke="#6d55e8" stroke-width="3.2" stroke-linecap="round"  />
<circle cx="905.1" cy="554.8" r="3.9" fill="#6d55e8" stroke="#6d55e8" stroke-width="2"/>
<text x="928.0" y="536.0" font-family="Segoe UI, Inter, Arial, sans-serif" font-size="18" font-weight="bold" fill="#0f172a" text-anchor="start">
<tspan x="928.0" dy="0">Local model call</tspan>
</text>
<text x="928.0" y="561.0" font-family="Segoe UI, Inter, Arial, sans-serif" font-size="13.2" font-weight="normal" fill="#617083" text-anchor="start">
<tspan x="928.0" dy="0">OpenAI-compatible LM Studio</tspan>
</text>
<rect x="845.0" y="638.0" width="380.0" height="77.0" rx="13.0" fill="#0f172a" opacity="0.055" stroke="none"/>
<rect x="840.0" y="631.0" width="380.0" height="77.0" rx="13.0" fill="#ffffff" stroke="#d9e2ec" stroke-width="1.8" />
<rect x="840.0" y="631.0" width="6.0" height="77.0" rx="3.0" fill="#6d55e8" stroke="#6d55e8" stroke-width="0" />
<circle cx="890.0" cy="669.5" r="34.0" fill="#efedff" stroke="#dce6f0" stroke-width="1.2"/>
<path d="M 873.8 648.8 H 896.7 L 906.2 658.3 V 686.9 H 873.8 Z" stroke="#0f172a" stroke-width="2.2" fill="#ffffff" stroke-linecap="round" stroke-linejoin="round"  />
<path d="M 896.7 648.8 L 906.2 658.3 L 896.7 658.3 Z" stroke="none" stroke-width="0" fill="#eef3f8" stroke-linecap="round" stroke-linejoin="round"  />
<path d="M 896.7 648.8 L 906.2 658.3 M 896.7 648.8 V 658.3 H 906.2" stroke="#0f172a" stroke-width="1.6" fill="none" stroke-linecap="round" stroke-linejoin="round"  />
<line x1="879.9" y1="663.9" x2="896.2" y2="663.9" stroke="#9badbf" stroke-width="2.3" stroke-linecap="round"  />
<rect x="879.9" y="672.9" width="19.0" height="5.6" rx="4.0" fill="#6d55e8" stroke="#6d55e8" stroke-width="0" />
<circle cx="902.3" cy="681.8" r="7.8" fill="#ffffff" stroke="#6d55e8" stroke-width="2.4"/>
<path d="M 898.4 681.8 L 901.8 685.2 L 907.4 676.8" stroke="#6d55e8" stroke-width="3.0" fill="none" stroke-linecap="round" stroke-linejoin="round"  />
<text x="928.0" y="663.0" font-family="Segoe UI, Inter, Arial, sans-serif" font-size="18" font-weight="bold" fill="#0f172a" text-anchor="start">
<tspan x="928.0" dy="0">Normalize output</tspan>
</text>
<text x="928.0" y="688.0" font-family="Segoe UI, Inter, Arial, sans-serif" font-size="13.2" font-weight="normal" fill="#617083" text-anchor="start">
<tspan x="928.0" dy="0">typed values and evidence refs</tspan>
</text>
<rect x="845.0" y="765.0" width="380.0" height="90.0" rx="11.0" fill="#0f172a" opacity="0.055" stroke="none"/>
<rect x="840.0" y="758.0" width="380.0" height="90.0" rx="11.0" fill="#fbfdff" stroke="#6d55e8" stroke-width="2.3" />
<circle cx="888.0" cy="803.0" r="36.0" fill="#efedff" stroke="#dce6f0" stroke-width="1.2"/>
<path d="M 868.2 791.0 H 880.8 L 885.6 796.4 H 907.8 V 818.0 H 868.2 Z" stroke="#0f172a" stroke-width="2.4" fill="#ffffff" stroke-linecap="round" stroke-linejoin="round"  />
<rect x="873.6" y="801.2" width="28.2" height="6.0" rx="4.0" fill="#6d55e8" stroke="#6d55e8" stroke-width="0" />
<line x1="876.0" y1="811.4" x2="897.6" y2="811.4" stroke="#6d55e8" stroke-width="3.0" stroke-linecap="round"  />
<circle cx="902.4" cy="811.4" r="2.7" fill="#6d55e8" stroke="#6d55e8" stroke-width="2"/>
<text x="930.0" y="796.0" font-family="Segoe UI, Inter, Arial, sans-serif" font-size="20" font-weight="bold" fill="#0f172a" text-anchor="start">
<tspan x="930.0" dy="0">Persist records</tspan>
</text>
<text x="930.0" y="824.0" font-family="Segoe UI, Inter, Arial, sans-serif" font-size="13.8" font-weight="normal" fill="#617083" text-anchor="start">
<tspan x="930.0" dy="0">proposal and evidence JSONL</tspan>
</text>
<rect x="1265.0" y="337.0" width="140.0" height="84.0" rx="11.0" fill="#0f172a" opacity="0.055" stroke="none"/>
<rect x="1260.0" y="330.0" width="140.0" height="84.0" rx="11.0" fill="#ffffff" stroke="#f08a24" stroke-width="1.9" stroke-dasharray="9 8"/>
<circle cx="1289.8" cy="364.4" r="8.0" fill="#ffffff" stroke="#0f172a" stroke-width="2.3"/>
<line x1="1296.1" y1="370.7" x2="1307.4" y2="382.0" stroke="#0f172a" stroke-width="4.2" stroke-linecap="round"  />
<line x1="1284.3" y1="364.4" x2="1295.3" y2="364.4" stroke="#f08a24" stroke-width="3.5" stroke-linecap="round"  />
<line x1="1289.8" y1="358.9" x2="1289.8" y2="369.8" stroke="#f08a24" stroke-width="3.5" stroke-linecap="round"  />
<text x="1324.0" y="362.0" font-family="Segoe UI, Inter, Arial, sans-serif" font-size="16.2" font-weight="bold" fill="#0f172a" text-anchor="start">
<tspan x="1324.0" dy="0">Rescue</tspan>
</text>
<text x="1324.0" y="386.0" font-family="Segoe UI, Inter, Arial, sans-serif" font-size="11.5" font-weight="normal" fill="#617083" text-anchor="start">
<tspan x="1324.0" dy="0">bounded</tspan>
<tspan x="1324.0" dy="12.1">extra</tspan>
<tspan x="1324.0" dy="12.1">context</tspan>
</text>
<rect x="1265.0" y="507.0" width="140.0" height="84.0" rx="11.0" fill="#0f172a" opacity="0.055" stroke="none"/>
<rect x="1260.0" y="500.0" width="140.0" height="84.0" rx="11.0" fill="#ffffff" stroke="#24a85b" stroke-width="1.9" stroke-dasharray="9 8"/>
<rect x="1281.0" y="528.1" width="25.2" height="17.6" rx="7.0" fill="#ffffff" stroke="#0f172a" stroke-width="2.2" />
<circle cx="1293.6" cy="536.9" r="5.5" fill="#ffffff" stroke="#24a85b" stroke-width="2.5"/>
<circle cx="1293.6" cy="536.9" r="1.9" fill="#24a85b" stroke="#24a85b" stroke-width="2"/>
<line x1="1282.2" y1="549.9" x2="1305.3" y2="549.9" stroke="#24a85b" stroke-width="2.6" stroke-linecap="round"  />
<text x="1324.0" y="532.0" font-family="Segoe UI, Inter, Arial, sans-serif" font-size="16.2" font-weight="bold" fill="#0f172a" text-anchor="start">
<tspan x="1324.0" dy="0">Vision</tspan>
</text>
<text x="1324.0" y="556.0" font-family="Segoe UI, Inter, Arial, sans-serif" font-size="11.5" font-weight="normal" fill="#617083" text-anchor="start">
<tspan x="1324.0" dy="0">targeted</tspan>
<tspan x="1324.0" dy="12.1">figure</tspan>
<tspan x="1324.0" dy="12.1">review</tspan>
</text>
<rect x="1265.0" y="677.0" width="140.0" height="84.0" rx="11.0" fill="#0f172a" opacity="0.055" stroke="none"/>
<rect x="1260.0" y="670.0" width="140.0" height="84.0" rx="11.0" fill="#ffffff" stroke="#e45670" stroke-width="1.9" stroke-dasharray="9 8"/>
<rect x="1277.6" y="695.1" width="32.8" height="27.7" rx="5.0" fill="#ffffff" stroke="#0f172a" stroke-width="2.2" />
<rect x="1277.6" y="695.1" width="32.8" height="6.3" rx="5.0" fill="#e45670" stroke="#e45670" stroke-width="0" />
<line x1="1285.8" y1="695.1" x2="1285.8" y2="722.9" stroke="#b9c6d3" stroke-width="1.4" stroke-linecap="round"  />
<line x1="1277.6" y1="702.1" x2="1310.4" y2="702.1" stroke="#b9c6d3" stroke-width="1.4" stroke-linecap="round"  />
<line x1="1294.0" y1="695.1" x2="1294.0" y2="722.9" stroke="#b9c6d3" stroke-width="1.4" stroke-linecap="round"  />
<line x1="1277.6" y1="709.0" x2="1310.4" y2="709.0" stroke="#b9c6d3" stroke-width="1.4" stroke-linecap="round"  />
<line x1="1302.2" y1="695.1" x2="1302.2" y2="722.9" stroke="#b9c6d3" stroke-width="1.4" stroke-linecap="round"  />
<line x1="1277.6" y1="715.9" x2="1310.4" y2="715.9" stroke="#b9c6d3" stroke-width="1.4" stroke-linecap="round"  />
<text x="1324.0" y="702.0" font-family="Segoe UI, Inter, Arial, sans-serif" font-size="16.2" font-weight="bold" fill="#0f172a" text-anchor="start">
<tspan x="1324.0" dy="0">Select</tspan>
</text>
<text x="1324.0" y="726.0" font-family="Segoe UI, Inter, Arial, sans-serif" font-size="11.5" font-weight="normal" fill="#617083" text-anchor="start">
<tspan x="1324.0" dy="0">candidate</tspan>
<tspan x="1324.0" dy="12.1">arbitration</tspan>
</text>
<rect x="1503.0" y="322.0" width="200.0" height="105.0" rx="13.0" fill="#0f172a" opacity="0.055" stroke="none"/>
<rect x="1498.0" y="315.0" width="200.0" height="105.0" rx="13.0" fill="#ffffff" stroke="#d9e2ec" stroke-width="1.8" />
<rect x="1498.0" y="315.0" width="6.0" height="105.0" rx="3.0" fill="#f08a24" stroke="#f08a24" stroke-width="0" />
<circle cx="1548.0" cy="367.5" r="34.0" fill="#fff0dc" stroke="#dce6f0" stroke-width="1.2"/>
<rect x="1526.7" y="347.9" width="37.0" height="31.4" rx="6.0" fill="#ffffff" stroke="#0f172a" stroke-width="2.2" />
<circle cx="1534.0" cy="356.3" r="2.5" fill="#24a85b" stroke="#24a85b" stroke-width="2"/>
<line x1="1539.0" y1="356.3" x2="1557.0" y2="356.3" stroke="#b9c6d3" stroke-width="2.4" stroke-linecap="round"  />
<circle cx="1534.0" cy="364.1" r="2.5" fill="#f08a24" stroke="#f08a24" stroke-width="2"/>
<line x1="1539.0" y1="364.1" x2="1557.0" y2="364.1" stroke="#b9c6d3" stroke-width="2.4" stroke-linecap="round"  />
<circle cx="1534.0" cy="372.0" r="2.5" fill="#e45670" stroke="#e45670" stroke-width="2"/>
<line x1="1539.0" y1="372.0" x2="1557.0" y2="372.0" stroke="#b9c6d3" stroke-width="2.4" stroke-linecap="round"  />
<circle cx="1562.6" cy="380.4" r="7.8" fill="#f08a24" stroke="#f08a24" stroke-width="2"/>
<text x="1586.0" y="347.0" font-family="Segoe UI, Inter, Arial, sans-serif" font-size="18" font-weight="bold" fill="#0f172a" text-anchor="start">
<tspan x="1586.0" dy="0">Review</tspan>
</text>
<text x="1586.0" y="372.0" font-family="Segoe UI, Inter, Arial, sans-serif" font-size="13.2" font-weight="normal" fill="#617083" text-anchor="start">
<tspan x="1586.0" dy="0">explicit</tspan>
<tspan x="1586.0" dy="14.3">decisions</tspan>
</text>
<rect x="1503.0" y="582.0" width="200.0" height="117.0" rx="11.0" fill="#0f172a" opacity="0.055" stroke="none"/>
<rect x="1498.0" y="575.0" width="200.0" height="117.0" rx="11.0" fill="#fbfdff" stroke="#24a85b" stroke-width="2.3" />
<circle cx="1546.0" cy="633.5" r="36.0" fill="#e8f8ee" stroke="#dce6f0" stroke-width="1.2"/>
<path d="M 1528.6 611.3 H 1553.2 L 1563.4 621.5 V 652.1 H 1528.6 Z" stroke="#0f172a" stroke-width="2.2" fill="#ffffff" stroke-linecap="round" stroke-linejoin="round"  />
<path d="M 1553.2 611.3 L 1563.4 621.5 L 1553.2 621.5 Z" stroke="none" stroke-width="0" fill="#eef3f8" stroke-linecap="round" stroke-linejoin="round"  />
<path d="M 1553.2 611.3 L 1563.4 621.5 M 1553.2 611.3 V 621.5 H 1563.4" stroke="#0f172a" stroke-width="1.6" fill="none" stroke-linecap="round" stroke-linejoin="round"  />
<line x1="1535.2" y1="627.5" x2="1552.6" y2="627.5" stroke="#9badbf" stroke-width="2.3" stroke-linecap="round"  />
<rect x="1535.2" y="637.1" width="20.4" height="6.0" rx="4.0" fill="#24a85b" stroke="#24a85b" stroke-width="0" />
<circle cx="1559.2" cy="646.7" r="8.4" fill="#ffffff" stroke="#24a85b" stroke-width="2.4"/>
<path d="M 1555.0 646.7 L 1558.6 650.3 L 1564.6 641.3" stroke="#24a85b" stroke-width="3.0" fill="none" stroke-linecap="round" stroke-linejoin="round"  />
<text x="1588.0" y="613.0" font-family="Segoe UI, Inter, Arial, sans-serif" font-size="20" font-weight="bold" fill="#0f172a" text-anchor="start">
<tspan x="1588.0" dy="0">Accepted</tspan>
</text>
<text x="1588.0" y="641.0" font-family="Segoe UI, Inter, Arial, sans-serif" font-size="13.8" font-weight="normal" fill="#617083" text-anchor="start">
<tspan x="1588.0" dy="0">approved</tspan>
<tspan x="1588.0" dy="14.9">decisions</tspan>
</text>
<rect x="1503.0" y="842.0" width="200.0" height="117.0" rx="11.0" fill="#0f172a" opacity="0.055" stroke="none"/>
<rect x="1498.0" y="835.0" width="200.0" height="117.0" rx="11.0" fill="#fbfdff" stroke="#24a85b" stroke-width="2.3" />
<circle cx="1546.0" cy="893.5" r="36.0" fill="#e8f8ee" stroke="#dce6f0" stroke-width="1.2"/>
<path d="M 1528.6 871.3 H 1553.2 L 1563.4 881.5 V 912.1 H 1528.6 Z" stroke="#0f172a" stroke-width="2.2" fill="#ffffff" stroke-linecap="round" stroke-linejoin="round"  />
<path d="M 1553.2 871.3 L 1563.4 881.5 L 1553.2 881.5 Z" stroke="none" stroke-width="0" fill="#eef3f8" stroke-linecap="round" stroke-linejoin="round"  />
<path d="M 1553.2 871.3 L 1563.4 881.5 M 1553.2 871.3 V 881.5 H 1563.4" stroke="#0f172a" stroke-width="1.6" fill="none" stroke-linecap="round" stroke-linejoin="round"  />
<line x1="1535.8" y1="891.7" x2="1552.6" y2="891.7" stroke="#24a85b" stroke-width="3.2" stroke-linecap="round"  />
<line x1="1535.8" y1="900.7" x2="1548.4" y2="900.7" stroke="#24a85b" stroke-width="3.2" stroke-linecap="round"  />
<circle cx="1559.2" cy="906.7" r="8.4" fill="#ffffff" stroke="#24a85b" stroke-width="2.4"/>
<path d="M 1555.0 906.7 L 1558.6 910.3 L 1565.2 901.3" stroke="#24a85b" stroke-width="3.0" fill="none" stroke-linecap="round" stroke-linejoin="round"  />
<text x="1588.0" y="873.0" font-family="Segoe UI, Inter, Arial, sans-serif" font-size="20" font-weight="bold" fill="#0f172a" text-anchor="start">
<tspan x="1588.0" dy="0">Export</tspan>
</text>
<text x="1588.0" y="901.0" font-family="Segoe UI, Inter, Arial, sans-serif" font-size="13.8" font-weight="normal" fill="#617083" text-anchor="start">
<tspan x="1588.0" dy="0">workbook</tspan>
<tspan x="1588.0" dy="14.9">plus audit</tspan>
</text>
<rect x="510.0" y="932.0" width="870.0" height="72.0" rx="12.0" fill="#0f172a" opacity="0.055" stroke="none"/>
<rect x="505.0" y="925.0" width="870.0" height="72.0" rx="12.0" fill="#ffffff" stroke="#0f9f8f" stroke-width="2.1" />
<path d="M 547.3 944.0 H 569.5 L 578.7 953.2 V 980.7 H 547.3 Z" stroke="#0f172a" stroke-width="2.2" fill="#ffffff" stroke-linecap="round" stroke-linejoin="round"  />
<path d="M 569.5 944.0 L 578.7 953.2 L 569.5 953.2 Z" stroke="none" stroke-width="0" fill="#eef3f8" stroke-linecap="round" stroke-linejoin="round"  />
<path d="M 569.5 944.0 L 578.7 953.2 M 569.5 944.0 V 953.2 H 578.7" stroke="#0f172a" stroke-width="1.6" fill="none" stroke-linecap="round" stroke-linejoin="round"  />
<line x1="553.3" y1="958.6" x2="568.9" y2="958.6" stroke="#9badbf" stroke-width="2.3" stroke-linecap="round"  />
<rect x="553.3" y="967.2" width="18.4" height="5.4" rx="4.0" fill="#0f9f8f" stroke="#0f9f8f" stroke-width="0" />
<circle cx="574.9" cy="975.9" r="7.6" fill="#ffffff" stroke="#0f9f8f" stroke-width="2.4"/>
<path d="M 571.1 975.9 L 574.3 979.1 L 579.7 971.0" stroke="#0f9f8f" stroke-width="3.0" fill="none" stroke-linecap="round" stroke-linejoin="round"  />
<text x="610.0" y="962.0" font-family="Segoe UI, Inter, Arial, sans-serif" font-size="23" font-weight="bold" fill="#0f172a" text-anchor="start">
<tspan x="610.0" dy="0">Canonical proposal record per target cell</tspan>
</text>
<text x="610.0" y="988.0" font-family="Segoe UI, Inter, Arial, sans-serif" font-size="15.5" font-weight="bold" fill="#0f9f8f" text-anchor="start">
<tspan x="610.0" dy="0">evidence | diagnostics | review state | provenance</tspan>
</text>
<line x1="1038.0" y1="848.0" x2="1038.0" y2="915.0" stroke="#0f9f8f" stroke-width="3" stroke-linecap="round"  />
<path d="M 1038.0 925.0 L 1032.9 914.0 L 1043.1 914.0 Z" fill="#0f9f8f" stroke="none"/>
</svg>