<svg xmlns="http://www.w3.org/2000/svg" width="1500" height="340" viewBox="0 0 1500 340" role="img" aria-label="Agent skill workflows schematic">
<title>Agent skill workflows schematic</title>

<defs>

  <marker id="arrow-ink" viewBox="0 0 14 14" refX="12" refY="7" markerWidth="11" markerHeight="11" orient="auto-start-reverse">
    <path d="M 2 2 L 12 7 L 2 12 z" fill="#0f172a"/>
  </marker>

  <marker id="arrow-line" viewBox="0 0 14 14" refX="12" refY="7" markerWidth="11" markerHeight="11" orient="auto-start-reverse">
    <path d="M 2 2 L 12 7 L 2 12 z" fill="#243247"/>
  </marker>

  <marker id="arrow-blue" viewBox="0 0 14 14" refX="12" refY="7" markerWidth="11" markerHeight="11" orient="auto-start-reverse">
    <path d="M 2 2 L 12 7 L 2 12 z" fill="#2563eb"/>
  </marker>

  <marker id="arrow-teal" viewBox="0 0 14 14" refX="12" refY="7" markerWidth="11" markerHeight="11" orient="auto-start-reverse">
    <path d="M 2 2 L 12 7 L 2 12 z" fill="#0f9f8f"/>
  </marker>

  <marker id="arrow-green" viewBox="0 0 14 14" refX="12" refY="7" markerWidth="11" markerHeight="11" orient="auto-start-reverse">
    <path d="M 2 2 L 12 7 L 2 12 z" fill="#24a85b"/>
  </marker>

  <marker id="arrow-orange" viewBox="0 0 14 14" refX="12" refY="7" markerWidth="11" markerHeight="11" orient="auto-start-reverse">
    <path d="M 2 2 L 12 7 L 2 12 z" fill="#f08a24"/>
  </marker>

  <marker id="arrow-purple" viewBox="0 0 14 14" refX="12" refY="7" markerWidth="11" markerHeight="11" orient="auto-start-reverse">
    <path d="M 2 2 L 12 7 L 2 12 z" fill="#6d55e8"/>
  </marker>

  <marker id="arrow-rose" viewBox="0 0 14 14" refX="12" refY="7" markerWidth="11" markerHeight="11" orient="auto-start-reverse">
    <path d="M 2 2 L 12 7 L 2 12 z" fill="#e45670"/>
  </marker>

  <marker id="arrow-muted" viewBox="0 0 14 14" refX="12" refY="7" markerWidth="11" markerHeight="11" orient="auto-start-reverse">
    <path d="M 2 2 L 12 7 L 2 12 z" fill="#617083"/>
  </marker>
</defs>
<rect x="0.0" y="0.0" width="1500.0" height="340.0" rx="0.0" fill="#f6f8fb" stroke="none" stroke-width="2" />
<text x="28.0" y="47.0" font-family="Segoe UI, Inter, Arial, sans-serif" font-size="29" font-weight="bold" fill="#0f172a" text-anchor="start">
<tspan x="28.0" dy="0">Agent-facing workflows</tspan>
</text>
<text x="430.0" y="47.0" font-family="Segoe UI, Inter, Arial, sans-serif" font-size="18" font-weight="normal" fill="#617083" text-anchor="start">
<tspan x="430.0" dy="0">two different skill concepts; only one depends on the installed local app</tspan>
</text>
<rect x="35.0" y="99.0" width="650.0" height="205.0" rx="14.0" fill="#0f172a" opacity="0.055" stroke="none"/>
<rect x="30.0" y="92.0" width="650.0" height="205.0" rx="14.0" fill="#eaf2ff" stroke="#2563eb" stroke-width="2.2" />
<rect x="85.9" y="169.8" width="36.0" height="26.7" rx="8.0" fill="#0f172a" stroke="#0f172a" stroke-width="2" />
<path d="M 93.4 178.5 L 99.2 183.1 L 93.4 187.7" stroke="#2563eb" stroke-width="3.5" fill="none" stroke-linecap="round" stroke-linejoin="round"  />
<line x1="105.0" y1="188.3" x2="115.4" y2="188.3" stroke="#2563eb" stroke-width="3.5" stroke-linecap="round"  />
<text x="165.0" y="152.0" font-family="Segoe UI, Inter, Arial, sans-serif" font-size="29" font-weight="bold" fill="#0f172a" text-anchor="start">
<tspan x="165.0" dy="0">Local-app skill</tspan>
</text>
<rect x="474.0" y="124.0" width="150.0" height="31.0" rx="7.0" fill="#2563eb" stroke="#2563eb" stroke-width="1.6" />
<text x="549.0" y="144.5" font-family="Segoe UI, Inter, Arial, sans-serif" font-size="14" font-weight="bold" fill="#ffffff" text-anchor="middle">
<tspan x="549.0" dy="0">calls main app</tspan>
</text>
<text x="165.0" y="192.0" font-family="Segoe UI, Inter, Arial, sans-serif" font-size="17" font-weight="normal" fill="#617083" text-anchor="start">
<tspan x="165.0" dy="0">Agent runs the installed app headlessly</tspan>
</text>
<text x="165.0" y="236.0" font-family="Segoe UI, Inter, Arial, sans-serif" font-size="16.5" font-weight="bold" fill="#2563eb" text-anchor="start">
<tspan x="165.0" dy="0">preflight -&gt; headless --accept-all --export</tspan>
</text>
<text x="165.0" y="270.0" font-family="Segoe UI, Inter, Arial, sans-serif" font-size="14" font-weight="normal" fill="#617083" text-anchor="start">
<tspan x="165.0" dy="0">outputs run bundle + workbook; values are auto-accepted,</tspan>
<tspan x="165.0" dy="16.5">not human-reviewed</tspan>
</text>
<rect x="825.0" y="99.0" width="650.0" height="205.0" rx="14.0" fill="#0f172a" opacity="0.055" stroke="none"/>
<rect x="820.0" y="92.0" width="650.0" height="205.0" rx="14.0" fill="#e8f8ee" stroke="#24a85b" stroke-width="2.2" />
<path d="M 879.9 167.4 H 902.0 V 176.7 H 910.1 V 195.3 H 899.6 V 202.2 H 879.9 Z" stroke="#0f172a" stroke-width="2.4" fill="#ffffff" stroke-linecap="round" stroke-linejoin="round"  />
<line x1="884.6" y1="177.9" x2="897.3" y2="177.9" stroke="#24a85b" stroke-width="3.2" stroke-linecap="round"  />
<line x1="884.6" y1="187.2" x2="904.3" y2="187.2" stroke="#24a85b" stroke-width="3.2" stroke-linecap="round"  />
<line x1="884.6" y1="196.4" x2="893.8" y2="196.4" stroke="#24a85b" stroke-width="3.2" stroke-linecap="round"  />
<text x="955.0" y="152.0" font-family="Segoe UI, Inter, Arial, sans-serif" font-size="29" font-weight="bold" fill="#0f172a" text-anchor="start">
<tspan x="955.0" dy="0">Portable agent kit</tspan>
</text>
<rect x="1260.0" y="124.0" width="140.0" height="31.0" rx="7.0" fill="#24a85b" stroke="#24a85b" stroke-width="1.6" />
<text x="1330.0" y="144.5" font-family="Segoe UI, Inter, Arial, sans-serif" font-size="14" font-weight="bold" fill="#ffffff" text-anchor="middle">
<tspan x="1330.0" dy="0">standalone</tspan>
</text>
<text x="955.0" y="192.0" font-family="Segoe UI, Inter, Arial, sans-serif" font-size="17" font-weight="normal" fill="#617083" text-anchor="start">
<tspan x="955.0" dy="0">Standalone skill for other agent systems</tspan>
</text>
<text x="955.0" y="236.0" font-family="Segoe UI, Inter, Arial, sans-serif" font-size="16.5" font-weight="bold" fill="#24a85b" text-anchor="start">
<tspan x="955.0" dy="0">uses app principles, but is standalone</tspan>
</text>
<text x="955.0" y="270.0" font-family="Segoe UI, Inter, Arial, sans-serif" font-size="14" font-weight="normal" fill="#617083" text-anchor="start">
<tspan x="955.0" dy="0">no local app or LM Studio; optional static review package</tspan>
</text>
</svg>